<svg width="150" height="48" viewBox="0 0 150 48" fill="none" xmlns="http://www.w3.org/2000/svg">
<g clip-path="url(#clip0_2029_22)">
<path d="M0 13.3855H6.16181V24.959H19.5035V13.3855H25.6653V43.4712H19.5035V30.5314H6.16181V43.4712H0V13.3855Z" fill="black"/>
<path d="M50.125 29.8616V43.4712H44.4455V40.7922C42.838 42.4264 40.4537 43.4712 37.5335 43.4712C32.6041 43.4712 29.7107 40.6314 29.7107 36.8808C29.7107 32.889 33.0595 30.4778 38.2569 30.4778H43.9365V29.4866C43.9365 27.0754 42.5166 25.6288 39.7303 25.6288C37.3192 25.6288 35.6046 26.7272 33.7293 28.6561L30.5412 24.959C33.1935 21.8781 36.4351 20.4314 40.4269 20.4314C46.1869 20.4314 50.125 23.5927 50.125 29.8616ZM43.9365 34.6839V34.416H39.0874C37.0781 34.416 35.9261 35.1662 35.9261 36.6396C35.9261 38.1399 37.2656 39.0508 39.1677 39.0508C41.7932 39.0508 43.9365 37.2826 43.9365 34.6839Z" fill="black"/>
<path d="M90.1232 20.4314L79.407 43.4712H77.3709L70.8876 30.6654L64.3507 43.4712H62.3415L51.6252 20.4314H58.1085L63.681 33.4516L69.8428 20.4314H71.9056L78.1746 33.1837L83.6399 20.4314H90.1232Z" fill="black"/>
<path d="M110.752 29.8616V43.4712H105.072V40.7922C103.465 42.4264 101.081 43.4712 98.1605 43.4712C93.231 43.4712 90.3376 40.6314 90.3376 36.8808C90.3376 32.889 93.6864 30.4778 98.8838 30.4778H104.563V29.4866C104.563 27.0754 103.143 25.6288 100.357 25.6288C97.9461 25.6288 96.2316 26.7272 94.3562 28.6561L91.1681 24.959C93.8204 21.8781 97.0621 20.4314 101.054 20.4314C106.841 20.4314 110.752 23.5927 110.752 29.8616ZM104.59 34.6839V34.416H99.7411C97.7318 34.416 96.5798 35.1662 96.5798 36.6396C96.5798 38.1399 97.9193 39.0508 99.8215 39.0508C102.447 39.0508 104.59 37.2826 104.59 34.6839Z" fill="black"/>
<path d="M134.863 29.8616V43.4712H129.184V40.7922C127.576 42.4264 125.192 43.4712 122.272 43.4712C117.342 43.4712 114.449 40.6314 114.449 36.8808C114.449 32.889 117.798 30.4778 122.995 30.4778H128.675V29.4866C128.675 27.0754 127.255 25.6288 124.469 25.6288C122.057 25.6288 120.343 26.7272 118.468 28.6561L115.279 24.959C117.932 21.8781 121.173 20.4314 125.165 20.4314C130.925 20.4314 134.863 23.5927 134.863 29.8616ZM128.675 34.6839V34.416H123.826C121.816 34.416 120.664 35.1662 120.664 36.6396C120.664 38.1399 122.004 39.0508 123.906 39.0508C126.531 39.0508 128.675 37.2826 128.675 34.6839Z" fill="black"/>
<path d="M150 5.02679V32.5406H141.936C141.722 20.3777 140.918 11.5101 122.459 13.439L122.486 5H150V5.02679Z" fill="#244255"/>
</g>
<defs>
<clipPath id="clip0_2029_22">
<rect width="150" height="48" fill="white"/>
</clipPath>
</defs>
</svg>
