<svg width="168" height="60" viewBox="0 0 168 60" fill="none" xmlns="http://www.w3.org/2000/svg">
<path d="M3.648 45V13.32H10.128V25.464H24.144V13.32H30.624V45H24.144V31.32H10.128V45H3.648ZM46.9444 20.712C52.9924 20.712 57.1204 24.12 57.1204 30.888V45H51.1684V42.696C49.4884 44.472 46.9924 45.576 43.9204 45.576C38.7364 45.576 35.7124 42.504 35.7124 38.472C35.7124 34.152 39.2164 31.56 44.6884 31.56H50.6404V30.504C50.6404 27.912 49.1524 26.328 46.2244 26.328C43.6804 26.328 41.9044 27.528 39.9364 29.592L36.5764 25.608C39.3604 22.296 42.7684 20.712 46.9444 20.712ZM45.6484 40.824C48.3844 40.824 50.6404 38.904 50.6404 36.12V35.832H45.5524C43.4404 35.832 42.2404 36.648 42.2404 38.232C42.2404 39.864 43.6324 40.824 45.6484 40.824ZM92.9471 21.24H99.7631L88.7231 45.576H86.6111L79.7951 31.752L72.9311 45.576H70.8191L59.7791 21.24H66.5951L72.2111 34.776L78.6911 20.712H80.8511L87.4271 34.488L92.9471 21.24ZM112.382 20.712C118.43 20.712 122.558 24.12 122.558 30.888V45H116.606V42.696C114.926 44.472 112.43 45.576 109.358 45.576C104.174 45.576 101.15 42.504 101.15 38.472C101.15 34.152 104.654 31.56 110.126 31.56H116.078V30.504C116.078 27.912 114.59 26.328 111.662 26.328C109.118 26.328 107.342 27.528 105.374 29.592L102.014 25.608C104.798 22.296 108.206 20.712 112.382 20.712ZM111.086 40.824C113.822 40.824 116.078 38.904 116.078 36.12V35.832H110.99C108.878 35.832 107.678 36.648 107.678 38.232C107.678 39.864 109.07 40.824 111.086 40.824ZM138.538 20.712C144.586 20.712 148.714 24.12 148.714 30.888V45H142.762V42.696C141.082 44.472 138.586 45.576 135.514 45.576C130.33 45.576 127.306 42.504 127.306 38.472C127.306 34.152 130.81 31.56 136.282 31.56H142.234V30.504C142.234 27.912 140.746 26.328 137.818 26.328C135.274 26.328 133.498 27.528 131.53 29.592L128.17 25.608C130.954 22.296 134.362 20.712 138.538 20.712ZM137.242 40.824C139.978 40.824 142.234 38.904 142.234 36.12V35.832H137.146C135.034 35.832 133.834 36.648 133.834 38.232C133.834 39.864 135.226 40.824 137.242 40.824Z" fill="white"/>
<path d="M168 2H140V12.0696C157.5 12.0696 157.5 23 157.5 32H168V2Z" fill="#2D8FAD"/>
</svg>
