<?xml version="1.0" encoding="utf-8"?>
<!-- Generator: Adobe Illustrator 24.0.1, SVG Export Plug-In . SVG Version: 6.00 Build 0)  -->
<svg version="1.1" id="Layer_1" xmlns="http://www.w3.org/2000/svg" xmlns:xlink="http://www.w3.org/1999/xlink" x="0px" y="0px"
	 viewBox="0 0 559.9 143.6" style="enable-background:new 0 0 559.9 143.6;" xml:space="preserve">
<style type="text/css">
	.st0{fill:#244255;}
</style>
<g>
	<g>
		<g>
			<path d="M0,31.3h23v43.2h49.8V31.3h23v112.3h-23V95.3H23v48.3H0V31.3z"/>
			<path d="M187.1,92.8v50.8h-21.2v-10c-6,6.1-14.9,10-25.8,10c-18.4,0-29.2-10.6-29.2-24.6c0-14.9,12.5-23.9,31.9-23.9H164v-3.7
				c0-9-5.3-14.4-15.7-14.4c-9,0-15.4,4.1-22.4,11.3L114,74.5c9.9-11.5,22-16.9,36.9-16.9C172.4,57.6,187.1,69.4,187.1,92.8z
				 M164,110.8v-1h-18.1c-7.5,0-11.8,2.8-11.8,8.3c0,5.6,5,9,12.1,9C156,127.1,164,120.5,164,110.8z"/>
			<path d="M336.4,57.6l-40,86h-7.6l-24.2-47.8l-24.4,47.8h-7.5l-40-86h24.2l20.8,48.6l23-48.6h7.7l23.4,47.6l20.4-47.6H336.4z"/>
			<path d="M413.4,92.8v50.8h-21.2v-10c-6,6.1-14.9,10-25.8,10c-18.4,0-29.2-10.6-29.2-24.6c0-14.9,12.5-23.9,31.9-23.9h21.2v-3.7
				c0-9-5.3-14.4-15.7-14.4c-9,0-15.4,4.1-22.4,11.3l-11.9-13.8c9.9-11.5,22-16.9,36.9-16.9C398.8,57.6,413.4,69.4,413.4,92.8z
				 M390.4,110.8v-1h-18.1c-7.5,0-11.8,2.8-11.8,8.3c0,5.6,5,9,12.1,9C382.4,127.1,390.4,120.5,390.4,110.8z"/>
			<path d="M503.4,92.8v50.8h-21.2v-10c-6,6.1-14.9,10-25.8,10c-18.4,0-29.2-10.6-29.2-24.6c0-14.9,12.5-23.9,31.9-23.9h21.2v-3.7
				c0-9-5.3-14.4-15.7-14.4c-9,0-15.4,4.1-22.4,11.3l-11.9-13.8c9.9-11.5,22-16.9,36.9-16.9C488.7,57.6,503.4,69.4,503.4,92.8z
				 M480.3,110.8v-1h-18.1c-7.5,0-11.8,2.8-11.8,8.3c0,5.6,5,9,12.1,9C472.3,127.1,480.3,120.5,480.3,110.8z"/>
		</g>
	</g>
	<path class="st0" d="M559.9,0.1v102.7h-30.1c-0.8-45.4-3.8-78.5-72.7-71.3L457.2,0L559.9,0.1L559.9,0.1z"/>
</g>
</svg>
