<?xml version="1.0" encoding="utf-8"?>
<!-- Generator: Adobe Illustrator 26.5.0, SVG Export Plug-In . SVG Version: 6.00 Build 0)  -->
<svg version="1.1" id="Layer_1" xmlns="http://www.w3.org/2000/svg" xmlns:xlink="http://www.w3.org/1999/xlink" x="0px" y="0px"
	 viewBox="0 0 1080 1080" style="enable-background:new 0 0 1080 1080;" xml:space="preserve">
<style type="text/css">
	.st0{fill:#F8F6F7;}
	.st1{fill:#FFFFFF;}
</style>

<g>
	<g>
		<g>
			<circle class="st0" cx="371.89" cy="321.5" r="10.23"/>
			<path class="st0" d="M391.18,350.78c-5.51,0-9.98-4.47-9.98-9.98c0-5.51,4.47-9.98,9.98-9.98s9.98,4.47,9.98,9.98
				C401.16,346.31,396.69,350.78,391.18,350.78z"/>
			<path class="st0" d="M410.47,369.72c-5.32,0-9.63-4.31-9.63-9.63c0-5.32,4.31-9.63,9.63-9.63c5.32,0,9.63,4.31,9.63,9.63
				C420.1,365.4,415.79,369.72,410.47,369.72z"/>
			<path class="st0" d="M429.76,388.66c-5.13,0-9.28-4.15-9.28-9.28s4.16-9.28,9.28-9.28s9.28,4.16,9.28,9.28
				S434.89,388.66,429.76,388.66z"/>
			<path class="st0" d="M449.05,407.58c-4.92,0-8.91-3.99-8.91-8.91s3.99-8.91,8.91-8.91c4.92,0,8.91,3.99,8.91,8.91
				S453.97,407.58,449.05,407.58z"/>
			<path class="st0" d="M468.34,426.4c-4.66,0-8.44-3.78-8.44-8.44c0-4.66,3.78-8.44,8.44-8.44c4.66,0,8.44,3.78,8.44,8.44
				C476.78,422.62,473.01,426.4,468.34,426.4z"/>
			<path class="st0" d="M487.63,445.22c-4.4,0-7.97-3.57-7.97-7.97s3.57-7.97,7.97-7.97c4.4,0,7.97,3.57,7.97,7.97
				S492.04,445.22,487.63,445.22z"/>
			<path class="st0" d="M506.92,464.04c-4.14,0-7.5-3.36-7.5-7.5c0-4.14,3.36-7.5,7.5-7.5c4.15,0,7.5,3.36,7.5,7.5
				C514.43,460.68,511.07,464.04,506.92,464.04z"/>
			<path class="st0" d="M526.21,482.87c-3.89,0-7.03-3.15-7.03-7.04c0-3.89,3.15-7.04,7.03-7.04c3.89,0,7.04,3.15,7.04,7.04
				C533.25,479.72,530.1,482.87,526.21,482.87z"/>
			<path class="st0" d="M545.51,501.63c-3.59,0-6.51-2.91-6.51-6.51c0-3.59,2.91-6.51,6.51-6.51s6.51,2.91,6.51,6.51
				C552.01,498.72,549.1,501.63,545.51,501.63z"/>
			<path class="st0" d="M564.8,520.33c-3.27,0-5.91-2.65-5.91-5.91c0-3.27,2.65-5.91,5.91-5.91c3.27,0,5.91,2.65,5.91,5.91
				C570.71,517.68,568.06,520.33,564.8,520.33z"/>
			<path class="st0" d="M584.09,539.02c-2.94,0-5.32-2.38-5.32-5.32s2.38-5.32,5.32-5.32s5.32,2.38,5.32,5.32
				S587.03,539.02,584.09,539.02z"/>
			<path class="st0" d="M603.38,557.72c-2.61,0-4.73-2.12-4.73-4.73c0-2.61,2.12-4.73,4.73-4.73c2.61,0,4.73,2.12,4.73,4.73
				C608.11,555.61,605.99,557.72,603.38,557.72z"/>
			<circle class="st0" cx="622.67" cy="572.29" r="4.13"/>
			<path class="st0" d="M641.96,595.12c-1.95,0-3.54-1.58-3.54-3.54c0-1.96,1.59-3.54,3.54-3.54c1.96,0,3.54,1.59,3.54,3.54
				C645.5,593.53,643.92,595.12,641.96,595.12z"/>
			<path class="st0" d="M661.25,613.81c-1.62,0-2.94-1.32-2.94-2.94s1.32-2.94,2.94-2.94c1.62,0,2.94,1.32,2.94,2.94
				S662.88,613.81,661.25,613.81z"/>
			<circle class="st0" cx="371.89" cy="376.07" r="10.23"/>
			<path class="st0" d="M391.18,404.91c-5.28,0-9.56-4.28-9.56-9.56c0-5.28,4.28-9.56,9.56-9.56c5.28,0,9.56,4.28,9.56,9.56
				C400.74,400.64,396.46,404.91,391.18,404.91z"/>
			<circle class="st0" cx="410.47" cy="414.65" r="8.8"/>
			<circle class="st0" cx="429.76" cy="433.94" r="7.88"/>
			<circle class="st0" cx="449.05" cy="453.23" r="6.95"/>
			<path class="st0" d="M468.34,478.46c-3.28,0-5.94-2.66-5.94-5.94c0-3.28,2.66-5.94,5.94-5.94c3.28,0,5.94,2.66,5.94,5.94
				C474.28,475.8,471.62,478.46,468.34,478.46z"/>
			<circle class="st0" cx="487.63" cy="491.81" r="4.82"/>
			<path class="st0" d="M506.92,514.81c-2.05,0-3.71-1.66-3.71-3.71c0-2.05,1.66-3.71,3.71-3.71c2.05,0,3.71,1.66,3.71,3.71
				C510.63,513.15,508.97,514.81,506.92,514.81z"/>
			<path class="st0" d="M526.21,532.98c-1.43,0-2.59-1.16-2.59-2.59c0-1.43,1.16-2.59,2.59-2.59c1.43,0,2.59,1.16,2.59,2.59
				C528.8,531.82,527.64,532.98,526.21,532.98z"/>
			<circle class="st0" cx="371.89" cy="430.63" r="10.23"/>
			<path class="st0" d="M391.18,459.12c-5.08,0-9.2-4.12-9.2-9.2c0-5.08,4.12-9.2,9.2-9.2c5.08,0,9.2,4.12,9.2,9.2
				C400.38,455,396.26,459.12,391.18,459.12z"/>
			<path class="st0" d="M410.47,476.93c-4.26,0-7.72-3.46-7.72-7.72c0-4.26,3.46-7.72,7.72-7.72c4.26,0,7.72,3.46,7.72,7.72
				C418.19,473.47,414.73,476.93,410.47,476.93z"/>
			<path class="st0" d="M429.76,494.53c-3.33,0-6.03-2.7-6.03-6.03c0-3.33,2.7-6.03,6.03-6.03s6.03,2.7,6.03,6.03
				C435.79,491.83,433.09,494.53,429.76,494.53z"/>
			<path class="st0" d="M449.05,511.87c-2.25,0-4.08-1.83-4.08-4.08c0-2.25,1.83-4.08,4.08-4.08c2.25,0,4.08,1.83,4.08,4.08
				C453.13,510.05,451.3,511.87,449.05,511.87z"/>
			<circle class="st0" cx="371.89" cy="485.19" r="10.23"/>
			<path class="st0" d="M391.18,513.15c-4.79,0-8.67-3.88-8.67-8.67s3.88-8.67,8.67-8.67c4.79,0,8.67,3.88,8.67,8.67
				S395.96,513.15,391.18,513.15z"/>
			<path class="st0" d="M410.47,530.06c-3.47,0-6.29-2.82-6.29-6.29s2.82-6.29,6.29-6.29c3.47,0,6.29,2.82,6.29,6.29
				S413.94,530.06,410.47,530.06z"/>
			<circle class="st0" cx="429.76" cy="543.06" r="3.37"/>
			<circle class="st0" cx="371.89" cy="539.75" r="10.23"/>
			<path class="st0" d="M391.18,563.15c-2.27,0-4.11-1.84-4.11-4.11s1.84-4.11,4.11-4.11c2.27,0,4.11,1.84,4.11,4.11
				S393.45,563.15,391.18,563.15z"/>
			<circle class="st0" cx="371.89" cy="594.32" r="10.23"/>
			<circle class="st0" cx="708.11" cy="597.47" r="10.23"/>
			<path class="st0" d="M688.82,588.16c-5.51,0-9.98-4.47-9.98-9.98c0-5.51,4.47-9.98,9.98-9.98s9.98,4.47,9.98,9.98
				C698.8,583.69,694.33,588.16,688.82,588.16z"/>
			<path class="st0" d="M669.53,568.52c-5.32,0-9.63-4.31-9.63-9.63s4.31-9.63,9.63-9.63c5.32,0,9.63,4.31,9.63,9.63
				S674.85,568.52,669.53,568.52z"/>
			<path class="st0" d="M650.24,548.87c-5.13,0-9.28-4.15-9.28-9.28s4.16-9.28,9.28-9.28c5.13,0,9.28,4.16,9.28,9.28
				S655.36,548.87,650.24,548.87z"/>
			<path class="st0" d="M630.95,529.21c-4.92,0-8.91-3.99-8.91-8.91c0-4.92,3.99-8.91,8.91-8.91c4.92,0,8.91,3.99,8.91,8.91
				C639.86,525.22,635.87,529.21,630.95,529.21z"/>
			<path class="st0" d="M611.66,509.45c-4.66,0-8.44-3.78-8.44-8.44c0-4.66,3.78-8.44,8.44-8.44c4.66,0,8.44,3.78,8.44,8.44
				C620.1,505.67,616.32,509.45,611.66,509.45z"/>
			<path class="st0" d="M592.37,489.69c-4.4,0-7.97-3.57-7.97-7.97c0-4.4,3.57-7.97,7.97-7.97c4.4,0,7.97,3.57,7.97,7.97
				C600.34,486.13,596.77,489.69,592.37,489.69z"/>
			<circle class="st0" cx="573.08" cy="462.43" r="7.5"/>
			<path class="st0" d="M553.79,450.17c-3.89,0-7.04-3.15-7.04-7.04c0-3.89,3.15-7.04,7.04-7.04c3.89,0,7.03,3.15,7.03,7.04
				C560.82,447.02,557.67,450.17,553.79,450.17z"/>
			<circle class="st0" cx="534.49" cy="423.85" r="6.51"/>
			<path class="st0" d="M515.2,410.47c-3.27,0-5.91-2.65-5.91-5.91c0-3.27,2.65-5.91,5.91-5.91c3.27,0,5.91,2.65,5.91,5.91
				C521.12,407.82,518.47,410.47,515.2,410.47z"/>
			<path class="st0" d="M495.91,390.59c-2.94,0-5.32-2.38-5.32-5.32c0-2.94,2.38-5.32,5.32-5.32c2.94,0,5.32,2.38,5.32,5.32
				C501.23,388.21,498.85,390.59,495.91,390.59z"/>
			<path class="st0" d="M476.62,370.7c-2.61,0-4.73-2.12-4.73-4.73s2.12-4.73,4.73-4.73s4.73,2.12,4.73,4.73
				S479.23,370.7,476.62,370.7z"/>
			<path class="st0" d="M457.33,350.82c-2.28,0-4.13-1.85-4.13-4.13c0-2.28,1.85-4.13,4.13-4.13c2.28,0,4.13,1.85,4.13,4.13
				C461.46,348.97,459.61,350.82,457.33,350.82z"/>
			<circle class="st0" cx="438.04" cy="327.39" r="3.54"/>
			<path class="st0" d="M418.75,311.04c-1.62,0-2.94-1.32-2.94-2.94c0-1.62,1.32-2.94,2.94-2.94s2.94,1.32,2.94,2.94
				C421.69,309.73,420.37,311.04,418.75,311.04z"/>
			<circle class="st0" cx="708.11" cy="542.9" r="10.23"/>
			<path class="st0" d="M688.82,533.17c-5.28,0-9.56-4.28-9.56-9.56c0-5.28,4.28-9.56,9.56-9.56c5.28,0,9.56,4.28,9.56,9.56
				C698.38,528.89,694.1,533.17,688.82,533.17z"/>
			<circle class="st0" cx="669.53" cy="504.32" r="8.8"/>
			<circle class="st0" cx="650.24" cy="485.03" r="7.88"/>
			<path class="st0" d="M630.95,472.69c-3.84,0-6.95-3.11-6.95-6.95c0-3.84,3.11-6.95,6.95-6.95c3.84,0,6.95,3.11,6.95,6.95
				C637.9,469.58,634.79,472.69,630.95,472.69z"/>
			<path class="st0" d="M611.66,452.39c-3.28,0-5.94-2.66-5.94-5.94s2.66-5.94,5.94-5.94c3.28,0,5.94,2.66,5.94,5.94
				S614.94,452.39,611.66,452.39z"/>
			<path class="st0" d="M592.37,431.98c-2.66,0-4.82-2.16-4.82-4.82c0-2.66,2.16-4.82,4.82-4.82c2.66,0,4.82,2.16,4.82,4.82
				C597.19,429.82,595.03,431.98,592.37,431.98z"/>
			<path class="st0" d="M573.08,411.57c-2.05,0-3.71-1.66-3.71-3.71s1.66-3.71,3.71-3.71s3.71,1.66,3.71,3.71
				S575.12,411.57,573.08,411.57z"/>
			<path class="st0" d="M553.79,391.16c-1.43,0-2.59-1.16-2.59-2.59c0-1.43,1.16-2.59,2.59-2.59c1.43,0,2.59,1.16,2.59,2.59
				C556.37,390,555.21,391.16,553.79,391.16z"/>
			<circle class="st0" cx="708.11" cy="488.34" r="10.23"/>
			<path class="st0" d="M688.82,478.25c-5.08,0-9.2-4.12-9.2-9.2c0-5.08,4.12-9.2,9.2-9.2c5.08,0,9.2,4.12,9.2,9.2
				C698.02,474.13,693.9,478.25,688.82,478.25z"/>
			<circle class="st0" cx="669.53" cy="449.76" r="7.72"/>
			<path class="st0" d="M650.24,436.5c-3.33,0-6.03-2.7-6.03-6.03c0-3.33,2.7-6.03,6.03-6.03s6.03,2.7,6.03,6.03
				C656.27,433.8,653.57,436.5,650.24,436.5z"/>
			<path class="st0" d="M630.95,415.26c-2.25,0-4.08-1.83-4.08-4.08c0-2.25,1.83-4.08,4.08-4.08c2.25,0,4.08,1.83,4.08,4.08
				C635.03,413.43,633.2,415.26,630.95,415.26z"/>
			<circle class="st0" cx="708.11" cy="433.78" r="10.23"/>
			<path class="st0" d="M688.82,423.15c-4.79,0-8.67-3.88-8.67-8.67c0-4.79,3.88-8.67,8.67-8.67s8.67,3.88,8.67,8.67
				C697.49,419.27,693.61,423.15,688.82,423.15z"/>
			<path class="st0" d="M669.53,401.49c-3.47,0-6.29-2.82-6.29-6.29c0-3.47,2.82-6.29,6.29-6.29c3.47,0,6.29,2.82,6.29,6.29
				C675.82,398.67,673,401.49,669.53,401.49z"/>
			<circle class="st0" cx="650.24" cy="375.91" r="3.37"/>
			<circle class="st0" cx="708.11" cy="379.21" r="10.23"/>
			<path class="st0" d="M688.82,364.03c-2.27,0-4.11-1.84-4.11-4.11c0-2.27,1.84-4.11,4.11-4.11c2.27,0,4.11,1.84,4.11,4.11
				C692.93,362.19,691.09,364.03,688.82,364.03z"/>
			<circle class="st0" cx="708.11" cy="324.65" r="10.23"/>
		</g>
	</g>
	<g>
		<path class="st1" d="M335.57,753.19v-25.24h-42.44v25.24h-14.28v-58.67h14.28v21.42h42.44v-21.42h14.28v58.67H335.57z"/>
		<path class="st1" d="M457.28,753.19l-6.74-12.66h-37.65l-6.74,12.66h-14.44l31.24-58.75h17.61l31.16,58.75H457.28z M431.64,705.15
			l-12.9,24.1h25.8L431.64,705.15z"/>
		<path class="st1" d="M545.56,753.19h-13.31l-34.73-58.75h15.99l25.4,43.01l25.4-43.01h15.99L545.56,753.19z"/>
		<path class="st1" d="M660.78,753.19h-13.31l-34.73-58.75h15.99l25.4,43.01l25.4-43.01h15.99L660.78,753.19z"/>
		<path class="st1" d="M786.71,753.19l-6.74-12.66h-37.65l-6.74,12.66h-14.44l31.24-58.75H770l31.16,58.75H786.71z M761.07,705.15
			l-12.9,24.1h25.8L761.07,705.15z"/>
	</g>
</g>
</svg>
