<?xml version="1.0" encoding="utf-8"?>
<!-- Generator: Adobe Illustrator 24.0.1, SVG Export Plug-In . SVG Version: 6.00 Build 0)  -->
<svg version="1.1" id="Layer_1" xmlns="http://www.w3.org/2000/svg" xmlns:xlink="http://www.w3.org/1999/xlink" x="0px" y="0px"
	 viewBox="0 0 1188.3 841.9" style="enable-background:new 0 0 1188.3 841.9;" xml:space="preserve">
<style type="text/css">
	.st0{fill:#244255;}
	.st1{fill:#48ABC8;}
	.st2{fill:#FFFFFF;}
	.st3{fill:#B5E1EC;}
	.st4{fill:#287392;}
</style>
<g>
	<g>
		<g>
			<path d="M314.2,357.9h23v43.2h49.8v-43.2h23v112.3h-23v-48.3h-49.8v48.3h-23V357.9z"/>
			<path d="M501.3,419.4v50.8h-21.2v-10c-6,6.1-14.9,10-25.8,10c-18.4,0-29.2-10.6-29.2-24.6c0-14.9,12.5-23.9,31.9-23.9h21.2V418
				c0-9-5.3-14.4-15.7-14.4c-9,0-15.4,4.1-22.4,11.3l-11.9-13.8c9.9-11.5,22-16.9,36.9-16.9C486.6,384.2,501.3,396,501.3,419.4z
				 M478.2,437.4v-1h-18.1c-7.5,0-11.8,2.8-11.8,8.3c0,5.6,5,9,12.1,9C470.2,453.7,478.2,447.1,478.2,437.4z"/>
			<path d="M650.6,384.2l-40,86H603l-24.2-47.8l-24.4,47.8h-7.5l-40-86h24.2l20.8,48.6l23-48.6h7.7l23.4,47.6l20.4-47.6H650.6z"/>
			<path d="M727.6,419.4v50.8h-21.2v-10c-6,6.1-14.9,10-25.8,10c-18.4,0-29.2-10.6-29.2-24.6c0-14.9,12.5-23.9,31.9-23.9h21.2V418
				c0-9-5.3-14.4-15.7-14.4c-9,0-15.4,4.1-22.4,11.3l-11.9-13.8c9.9-11.5,22-16.9,36.9-16.9C713,384.2,727.6,396,727.6,419.4z
				 M704.6,437.4v-1h-18.1c-7.5,0-11.8,2.8-11.8,8.3c0,5.6,5,9,12.1,9C696.6,453.7,704.6,447.1,704.6,437.4z"/>
			<path d="M817.6,419.4v50.8h-21.2v-10c-6,6.1-14.9,10-25.8,10c-18.4,0-29.2-10.6-29.2-24.6c0-14.9,12.5-23.9,31.9-23.9h21.2V418
				c0-9-5.3-14.4-15.7-14.4c-9,0-15.4,4.1-22.4,11.3l-11.9-13.8c9.9-11.5,22-16.9,36.9-16.9C802.9,384.2,817.6,396,817.6,419.4z
				 M794.5,437.4v-1h-18.1c-7.5,0-11.8,2.8-11.8,8.3c0,5.6,5,9,12.1,9C786.5,453.7,794.5,447.1,794.5,437.4z"/>
		</g>
	</g>
	<path class="st0" d="M874.1,326.7v102.7H844c-0.8-45.4-3.8-78.5-72.7-71.3l0.1-31.5H874.1z"/>
</g>
</svg>
