<svg width="400" height="400" viewBox="0 0 400 400" fill="none" xmlns="http://www.w3.org/2000/svg">
<path d="M32.23 72.5701C37.8799 72.5701 42.46 67.99 42.46 62.3401C42.46 56.6902 37.8799 52.1101 32.23 52.1101C26.5801 52.1101 22 56.6902 22 62.3401C22 67.99 26.5801 72.5701 32.23 72.5701Z" fill="black"/>
<path d="M51.52 91.6099C46.01 91.6099 41.54 87.1399 41.54 81.6299C41.54 76.1199 46.01 71.6499 51.52 71.6499C57.03 71.6499 61.5 76.1199 61.5 81.6299C61.5 87.1399 57.03 91.6099 51.52 91.6099Z" fill="black"/>
<path d="M70.81 110.55C65.49 110.55 61.18 106.24 61.18 100.92C61.18 95.6 65.49 91.29 70.81 91.29C76.13 91.29 80.44 95.6 80.44 100.92C80.44 106.24 76.13 110.55 70.81 110.55Z" fill="black"/>
<path d="M90.1 129.49C84.97 129.49 80.82 125.34 80.82 120.21C80.82 115.08 84.98 110.93 90.1 110.93C95.22 110.93 99.38 115.09 99.38 120.21C99.38 125.33 95.23 129.49 90.1 129.49Z" fill="black"/>
<path d="M109.39 148.41C104.47 148.41 100.48 144.42 100.48 139.5C100.48 134.58 104.47 130.59 109.39 130.59C114.31 130.59 118.3 134.58 118.3 139.5C118.3 144.42 114.31 148.41 109.39 148.41Z" fill="black"/>
<path d="M128.68 167.23C124.02 167.23 120.24 163.45 120.24 158.79C120.24 154.13 124.02 150.35 128.68 150.35C133.34 150.35 137.12 154.13 137.12 158.79C137.12 163.45 133.35 167.23 128.68 167.23Z" fill="black"/>
<path d="M147.97 186.06C143.57 186.06 140 182.49 140 178.09C140 173.69 143.57 170.12 147.97 170.12C152.37 170.12 155.94 173.69 155.94 178.09C155.94 182.49 152.38 186.06 147.97 186.06Z" fill="black"/>
<path d="M167.26 204.88C163.12 204.88 159.76 201.52 159.76 197.38C159.76 193.24 163.12 189.88 167.26 189.88C171.41 189.88 174.76 193.24 174.76 197.38C174.77 201.52 171.41 204.88 167.26 204.88Z" fill="black"/>
<path d="M186.55 223.7C182.66 223.7 179.52 220.55 179.52 216.66C179.52 212.77 182.67 209.62 186.55 209.62C190.44 209.62 193.59 212.77 193.59 216.66C193.59 220.55 190.44 223.7 186.55 223.7Z" fill="black"/>
<path d="M205.85 242.46C202.26 242.46 199.34 239.55 199.34 235.95C199.34 232.35 202.25 229.44 205.85 229.44C209.45 229.44 212.36 232.35 212.36 235.95C212.36 239.55 209.44 242.46 205.85 242.46Z" fill="black"/>
<path d="M225.14 261.16C221.87 261.16 219.23 258.51 219.23 255.25C219.23 251.98 221.88 249.34 225.14 249.34C228.41 249.34 231.05 251.99 231.05 255.25C231.05 258.51 228.4 261.16 225.14 261.16Z" fill="black"/>
<path d="M244.43 279.86C241.49 279.86 239.11 277.48 239.11 274.54C239.11 271.6 241.49 269.22 244.43 269.22C247.37 269.22 249.75 271.6 249.75 274.54C249.75 277.48 247.37 279.86 244.43 279.86Z" fill="black"/>
<path d="M263.72 298.56C261.11 298.56 258.99 296.44 258.99 293.83C258.99 291.22 261.11 289.1 263.72 289.1C266.33 289.1 268.45 291.22 268.45 293.83C268.45 296.44 266.33 298.56 263.72 298.56Z" fill="black"/>
<path d="M283.01 317.25C285.291 317.25 287.14 315.401 287.14 313.12C287.14 310.839 285.291 308.99 283.01 308.99C280.729 308.99 278.88 310.839 278.88 313.12C278.88 315.401 280.729 317.25 283.01 317.25Z" fill="black"/>
<path d="M302.3 335.95C300.35 335.95 298.76 334.37 298.76 332.41C298.76 330.45 300.35 328.87 302.3 328.87C304.26 328.87 305.84 330.46 305.84 332.41C305.84 334.37 304.26 335.95 302.3 335.95Z" fill="black"/>
<path d="M321.59 354.64C319.97 354.64 318.65 353.32 318.65 351.7C318.65 350.08 319.97 348.76 321.59 348.76C323.21 348.76 324.53 350.08 324.53 351.7C324.53 353.32 323.22 354.64 321.59 354.64Z" fill="black"/>
<path d="M32.23 127.13C37.8799 127.13 42.46 122.55 42.46 116.9C42.46 111.25 37.8799 106.67 32.23 106.67C26.5801 106.67 22 111.25 22 116.9C22 122.55 26.5801 127.13 32.23 127.13Z" fill="black"/>
<path d="M51.52 145.75C46.24 145.75 41.96 141.47 41.96 136.19C41.96 130.91 46.24 126.63 51.52 126.63C56.8 126.63 61.08 130.91 61.08 136.19C61.08 141.47 56.8 145.75 51.52 145.75Z" fill="black"/>
<path d="M70.81 164.28C75.6701 164.28 79.61 160.34 79.61 155.48C79.61 150.62 75.6701 146.68 70.81 146.68C65.9499 146.68 62.01 150.62 62.01 155.48C62.01 160.34 65.9499 164.28 70.81 164.28Z" fill="black"/>
<path d="M90.1 182.65C94.452 182.65 97.98 179.122 97.98 174.77C97.98 170.418 94.452 166.89 90.1 166.89C85.748 166.89 82.22 170.418 82.22 174.77C82.22 179.122 85.748 182.65 90.1 182.65Z" fill="black"/>
<path d="M109.39 201.01C113.228 201.01 116.34 197.898 116.34 194.06C116.34 190.221 113.228 187.11 109.39 187.11C105.552 187.11 102.44 190.221 102.44 194.06C102.44 197.898 105.552 201.01 109.39 201.01Z" fill="black"/>
<path d="M128.68 219.29C125.4 219.29 122.74 216.63 122.74 213.35C122.74 210.07 125.4 207.41 128.68 207.41C131.96 207.41 134.62 210.07 134.62 213.35C134.62 216.64 131.96 219.29 128.68 219.29Z" fill="black"/>
<path d="M147.97 237.47C150.632 237.47 152.79 235.312 152.79 232.65C152.79 229.988 150.632 227.83 147.97 227.83C145.308 227.83 143.15 229.988 143.15 232.65C143.15 235.312 145.308 237.47 147.97 237.47Z" fill="black"/>
<path d="M167.26 255.64C165.21 255.64 163.55 253.98 163.55 251.93C163.55 249.88 165.21 248.22 167.26 248.22C169.31 248.22 170.97 249.88 170.97 251.93C170.97 253.98 169.31 255.64 167.26 255.64Z" fill="black"/>
<path d="M186.55 273.81C185.12 273.81 183.96 272.65 183.96 271.22C183.96 269.79 185.12 268.63 186.55 268.63C187.98 268.63 189.14 269.79 189.14 271.22C189.14 272.65 187.98 273.81 186.55 273.81Z" fill="black"/>
<path d="M32.23 181.69C37.8799 181.69 42.46 177.11 42.46 171.46C42.46 165.81 37.8799 161.23 32.23 161.23C26.5801 161.23 22 165.81 22 171.46C22 177.11 26.5801 181.69 32.23 181.69Z" fill="black"/>
<path d="M51.52 199.95C46.44 199.95 42.32 195.83 42.32 190.75C42.32 185.67 46.44 181.55 51.52 181.55C56.6 181.55 60.72 185.67 60.72 190.75C60.72 195.83 56.6 199.95 51.52 199.95Z" fill="black"/>
<path d="M70.81 217.76C66.55 217.76 63.09 214.3 63.09 210.04C63.09 205.78 66.55 202.32 70.81 202.32C75.07 202.32 78.53 205.78 78.53 210.04C78.53 214.31 75.07 217.76 70.81 217.76Z" fill="black"/>
<path d="M90.1 235.37C86.77 235.37 84.07 232.67 84.07 229.34C84.07 226.01 86.77 223.31 90.1 223.31C93.43 223.31 96.13 226.01 96.13 229.34C96.13 232.67 93.43 235.37 90.1 235.37Z" fill="black"/>
<path d="M109.39 252.71C107.14 252.71 105.31 250.88 105.31 248.63C105.31 246.38 107.14 244.55 109.39 244.55C111.64 244.55 113.47 246.38 113.47 248.63C113.47 250.88 111.64 252.71 109.39 252.71Z" fill="black"/>
<path d="M32.23 236.26C37.8799 236.26 42.46 231.68 42.46 226.03C42.46 220.38 37.8799 215.8 32.23 215.8C26.5801 215.8 22 220.38 22 226.03C22 231.68 26.5801 236.26 32.23 236.26Z" fill="black"/>
<path d="M51.52 253.98C46.73 253.98 42.85 250.1 42.85 245.31C42.85 240.52 46.73 236.64 51.52 236.64C56.31 236.64 60.19 240.52 60.19 245.31C60.19 250.1 56.3 253.98 51.52 253.98Z" fill="black"/>
<path d="M70.81 270.9C67.34 270.9 64.52 268.08 64.52 264.61C64.52 261.14 67.34 258.32 70.81 258.32C74.28 258.32 77.1 261.14 77.1 264.61C77.1 268.08 74.28 270.9 70.81 270.9Z" fill="black"/>
<path d="M90.1 287.27C91.9612 287.27 93.47 285.761 93.47 283.9C93.47 282.039 91.9612 280.53 90.1 280.53C88.2388 280.53 86.73 282.039 86.73 283.9C86.73 285.761 88.2388 287.27 90.1 287.27Z" fill="black"/>
<path d="M32.23 290.82C37.8799 290.82 42.46 286.24 42.46 280.59C42.46 274.94 37.8799 270.36 32.23 270.36C26.5801 270.36 22 274.94 22 280.59C22 286.24 26.5801 290.82 32.23 290.82Z" fill="black"/>
<path d="M51.52 303.99C49.25 303.99 47.41 302.15 47.41 299.88C47.41 297.61 49.25 295.77 51.52 295.77C53.79 295.77 55.63 297.61 55.63 299.88C55.63 302.15 53.79 303.99 51.52 303.99Z" fill="black"/>
<path d="M32.23 345.38C37.8799 345.38 42.46 340.8 42.46 335.15C42.46 329.5 37.8799 324.92 32.23 324.92C26.5801 324.92 22 329.5 22 335.15C22 340.8 26.5801 345.38 32.23 345.38Z" fill="black"/>
<path d="M368.45 348.53C374.1 348.53 378.68 343.95 378.68 338.3C378.68 332.65 374.1 328.07 368.45 328.07C362.8 328.07 358.22 332.65 358.22 338.3C358.22 343.95 362.8 348.53 368.45 348.53Z" fill="black"/>
<path d="M349.16 328.99C343.65 328.99 339.18 324.52 339.18 319.01C339.18 313.5 343.65 309.03 349.16 309.03C354.67 309.03 359.14 313.5 359.14 319.01C359.14 324.52 354.67 328.99 349.16 328.99Z" fill="black"/>
<path d="M329.87 309.35C324.55 309.35 320.24 305.04 320.24 299.72C320.24 294.4 324.55 290.09 329.87 290.09C335.19 290.09 339.5 294.4 339.5 299.72C339.5 305.04 335.19 309.35 329.87 309.35Z" fill="black"/>
<path d="M310.58 289.71C305.45 289.71 301.3 285.56 301.3 280.43C301.3 275.3 305.46 271.15 310.58 271.15C315.71 271.15 319.86 275.31 319.86 280.43C319.86 285.55 315.7 289.71 310.58 289.71Z" fill="black"/>
<path d="M291.29 270.05C286.37 270.05 282.38 266.06 282.38 261.14C282.38 256.22 286.37 252.23 291.29 252.23C296.21 252.23 300.2 256.22 300.2 261.14C300.2 266.06 296.21 270.05 291.29 270.05Z" fill="black"/>
<path d="M272 250.29C267.34 250.29 263.56 246.51 263.56 241.85C263.56 237.19 267.34 233.41 272 233.41C276.66 233.41 280.44 237.19 280.44 241.85C280.44 246.51 276.66 250.29 272 250.29Z" fill="black"/>
<path d="M252.71 230.53C248.31 230.53 244.74 226.96 244.74 222.56C244.74 218.16 248.31 214.59 252.71 214.59C257.11 214.59 260.68 218.16 260.68 222.56C260.68 226.96 257.11 230.53 252.71 230.53Z" fill="black"/>
<path d="M233.42 210.77C237.562 210.77 240.92 207.412 240.92 203.27C240.92 199.128 237.562 195.77 233.42 195.77C229.278 195.77 225.92 199.128 225.92 203.27C225.92 207.412 229.278 210.77 233.42 210.77Z" fill="black"/>
<path d="M214.13 191.01C210.24 191.01 207.09 187.86 207.09 183.97C207.09 180.08 210.24 176.93 214.13 176.93C218.02 176.93 221.16 180.08 221.16 183.97C221.16 187.86 218.01 191.01 214.13 191.01Z" fill="black"/>
<path d="M194.83 171.19C198.425 171.19 201.34 168.275 201.34 164.68C201.34 161.085 198.425 158.17 194.83 158.17C191.235 158.17 188.32 161.085 188.32 164.68C188.32 168.275 191.235 171.19 194.83 171.19Z" fill="black"/>
<path d="M175.54 151.31C172.27 151.31 169.63 148.66 169.63 145.4C169.63 142.13 172.28 139.49 175.54 139.49C178.81 139.49 181.45 142.14 181.45 145.4C181.46 148.66 178.81 151.31 175.54 151.31Z" fill="black"/>
<path d="M156.25 131.42C153.31 131.42 150.93 129.04 150.93 126.1C150.93 123.16 153.31 120.78 156.25 120.78C159.19 120.78 161.57 123.16 161.57 126.1C161.57 129.04 159.19 131.42 156.25 131.42Z" fill="black"/>
<path d="M136.96 111.54C134.35 111.54 132.23 109.42 132.23 106.81C132.23 104.2 134.35 102.08 136.96 102.08C139.57 102.08 141.69 104.2 141.69 106.81C141.69 109.42 139.57 111.54 136.96 111.54Z" fill="black"/>
<path d="M117.67 91.6501C115.39 91.6501 113.54 89.8001 113.54 87.5201C113.54 85.2401 115.39 83.3901 117.67 83.3901C119.95 83.3901 121.8 85.2401 121.8 87.5201C121.8 89.8001 119.95 91.6501 117.67 91.6501Z" fill="black"/>
<path d="M98.38 71.77C100.335 71.77 101.92 70.185 101.92 68.2299C101.92 66.2749 100.335 64.6899 98.38 64.6899C96.4249 64.6899 94.84 66.2749 94.84 68.2299C94.84 70.185 96.4249 71.77 98.38 71.77Z" fill="black"/>
<path d="M79.09 51.88C77.47 51.88 76.15 50.56 76.15 48.94C76.15 47.32 77.47 46 79.09 46C80.71 46 82.03 47.32 82.03 48.94C82.03 50.56 80.71 51.88 79.09 51.88Z" fill="black"/>
<path d="M368.45 293.97C374.1 293.97 378.68 289.39 378.68 283.74C378.68 278.09 374.1 273.51 368.45 273.51C362.8 273.51 358.22 278.09 358.22 283.74C358.22 289.39 362.8 293.97 368.45 293.97Z" fill="black"/>
<path d="M349.16 274.01C343.88 274.01 339.6 269.73 339.6 264.45C339.6 259.17 343.88 254.89 349.16 254.89C354.44 254.89 358.72 259.17 358.72 264.45C358.72 269.73 354.44 274.01 349.16 274.01Z" fill="black"/>
<path d="M329.87 253.96C334.73 253.96 338.67 250.02 338.67 245.16C338.67 240.3 334.73 236.36 329.87 236.36C325.01 236.36 321.07 240.3 321.07 245.16C321.07 250.02 325.01 253.96 329.87 253.96Z" fill="black"/>
<path d="M310.58 233.75C314.932 233.75 318.46 230.222 318.46 225.87C318.46 221.518 314.932 217.99 310.58 217.99C306.228 217.99 302.7 221.518 302.7 225.87C302.7 230.222 306.228 233.75 310.58 233.75Z" fill="black"/>
<path d="M291.29 213.53C287.45 213.53 284.34 210.42 284.34 206.58C284.34 202.74 287.45 199.63 291.29 199.63C295.13 199.63 298.24 202.74 298.24 206.58C298.24 210.41 295.13 213.53 291.29 213.53Z" fill="black"/>
<path d="M272 193.22C268.72 193.22 266.06 190.56 266.06 187.28C266.06 184 268.72 181.34 272 181.34C275.28 181.34 277.94 184 277.94 187.28C277.94 190.56 275.28 193.22 272 193.22Z" fill="black"/>
<path d="M252.71 172.82C250.05 172.82 247.89 170.66 247.89 168C247.89 165.34 250.05 163.18 252.71 163.18C255.37 163.18 257.53 165.34 257.53 168C257.53 170.66 255.37 172.82 252.71 172.82Z" fill="black"/>
<path d="M233.42 152.41C231.37 152.41 229.71 150.75 229.71 148.7C229.71 146.65 231.37 144.99 233.42 144.99C235.47 144.99 237.13 146.65 237.13 148.7C237.13 150.75 235.46 152.41 233.42 152.41Z" fill="black"/>
<path d="M214.13 132C212.7 132 211.54 130.84 211.54 129.41C211.54 127.98 212.7 126.82 214.13 126.82C215.56 126.82 216.72 127.98 216.72 129.41C216.71 130.84 215.55 132 214.13 132Z" fill="black"/>
<path d="M368.45 239.41C374.1 239.41 378.68 234.83 378.68 229.18C378.68 223.53 374.1 218.95 368.45 218.95C362.8 218.95 358.22 223.53 358.22 229.18C358.22 234.83 362.8 239.41 368.45 239.41Z" fill="black"/>
<path d="M349.16 219.08C344.08 219.08 339.96 214.96 339.96 209.88C339.96 204.8 344.08 200.68 349.16 200.68C354.24 200.68 358.36 204.8 358.36 209.88C358.36 214.96 354.24 219.08 349.16 219.08Z" fill="black"/>
<path d="M329.87 198.31C334.134 198.31 337.59 194.854 337.59 190.59C337.59 186.327 334.134 182.87 329.87 182.87C325.606 182.87 322.15 186.327 322.15 190.59C322.15 194.854 325.606 198.31 329.87 198.31Z" fill="black"/>
<path d="M310.58 177.33C307.25 177.33 304.55 174.63 304.55 171.3C304.55 167.97 307.25 165.27 310.58 165.27C313.91 165.27 316.61 167.97 316.61 171.3C316.61 174.63 313.91 177.33 310.58 177.33Z" fill="black"/>
<path d="M291.29 156.09C289.04 156.09 287.21 154.26 287.21 152.01C287.21 149.76 289.04 147.93 291.29 147.93C293.54 147.93 295.37 149.76 295.37 152.01C295.37 154.27 293.54 156.09 291.29 156.09Z" fill="black"/>
<path d="M368.45 184.84C374.1 184.84 378.68 180.26 378.68 174.61C378.68 168.96 374.1 164.38 368.45 164.38C362.8 164.38 358.22 168.96 358.22 174.61C358.22 180.26 362.8 184.84 368.45 184.84Z" fill="black"/>
<path d="M349.16 163.99C344.37 163.99 340.49 160.11 340.49 155.32C340.49 150.53 344.37 146.65 349.16 146.65C353.95 146.65 357.83 150.53 357.83 155.32C357.83 160.11 353.95 163.99 349.16 163.99Z" fill="black"/>
<path d="M329.87 142.32C326.4 142.32 323.58 139.5 323.58 136.03C323.58 132.56 326.4 129.74 329.87 129.74C333.34 129.74 336.16 132.56 336.16 136.03C336.16 139.5 333.34 142.32 329.87 142.32Z" fill="black"/>
<path d="M310.58 120.11C312.441 120.11 313.95 118.601 313.95 116.74C313.95 114.879 312.441 113.37 310.58 113.37C308.719 113.37 307.21 114.879 307.21 116.74C307.21 118.601 308.719 120.11 310.58 120.11Z" fill="black"/>
<path d="M368.45 130.28C374.1 130.28 378.68 125.7 378.68 120.05C378.68 114.4 374.1 109.82 368.45 109.82C362.8 109.82 358.22 114.4 358.22 120.05C358.22 125.7 362.8 130.28 368.45 130.28Z" fill="black"/>
<path d="M349.16 104.87C346.89 104.87 345.05 103.03 345.05 100.76C345.05 98.4899 346.89 96.6499 349.16 96.6499C351.43 96.6499 353.27 98.4899 353.27 100.76C353.27 103.03 351.43 104.87 349.16 104.87Z" fill="black"/>
<path d="M368.45 75.72C374.1 75.72 378.68 71.1399 378.68 65.49C378.68 59.8401 374.1 55.26 368.45 55.26C362.8 55.26 358.22 59.8401 358.22 65.49C358.22 71.1399 362.8 75.72 368.45 75.72Z" fill="black"/>
</svg>
